<svg version="1.1" xmlns="http://www.w3.org/2000/svg" viewBox="0 0 2045 2048" width="642" height="643" preserveAspectRatio="none" display="block"><path fill="#0891b2" d="M 1002.66 2.00859 C 1015.55 1.61144 1028.46 1.61955 1041.36 2.03289 C 1061.87 2.87674 1082.6 2.61716 1103.06 4.28449 C 1281.49 18.2237 1453.08 79.0092 1600.49 180.5 C 1645.05 210.477 1686.88 244.322 1725.5 281.642 C 1733.23 288.971 1741.8 295.533 1749 303.397 C 1780.05 337.297 1810.85 370.637 1838.78 407.255 C 1933.02 532.234 1997.34 677.163 2026.79 830.896 C 2032.99 861.805 2037.49 893.03 2040.27 924.432 C 2041.55 939.565 2041.52 976.07 2045 988.12 L 2045 1060.69 C 2044.94 1060.98 2044.88 1061.27 2044.83 1061.55 C 2040.75 1083.44 2041.87 1107.42 2039.72 1129.68 C 2035.4 1170.87 2028.73 1211.78 2019.74 1252.21 C 1979.61 1428.25 1893.32 1590.43 1769.74 1722.06 C 1761.43 1730.91 1754.1 1740.64 1745.44 1749.16 C 1737.08 1757.4 1727.84 1764.71 1719.18 1772.63 C 1678.93 1809.44 1637.36 1842.49 1592.6 1873.69 C 1569.66 1889.68 1545.08 1904.1 1520.68 1917.73 C 1418.46 1975.06 1306.97 2014 1191.28 2032.78 C 1165.82 2037.33 1140.17 2040.71 1114.4 2042.9 C 1100.79 2044.08 1082.46 2042.68 1069.67 2046.07 C 1058.72 2045.09 1047.48 2046.25 1036.49 2046.35 C 1020.18 2046.5 1003.92 2046.07 987.619 2045.94 C 954.228 2046.92 909.634 2041.38 876.15 2036.5 C 718.604 2014.25 568.515 1955.2 438.046 1864.13 C 257.988 1739.15 122.952 1559.52 52.9224 1351.83 C 45.0718 1328.5 37.4453 1304.98 31.5066 1281.08 C 20.5144 1237.59 12.2655 1193.45 6.8088 1148.93 C 4.11182 1126.83 4.37735 1103.44 0.170332 1081.7 C 0.116428 1081.42 0.0567773 1081.14 0 1080.86 L 0 967.317 C 4.05958 954.363 3.81654 924.583 5.46652 909.241 C 8.9952 878.099 13.9494 847.136 20.3135 816.448 C 60.7623 625.703 148.083 460.9 280.651 318.087 C 297.03 300.443 314.667 284.877 332.314 268.655 C 498.86 116.409 711.086 23.5247 935.926 4.47244 C 957.866 2.42084 980.618 2.79524 1002.66 2.00859 z" data-c-fill="62a946" fill-opacity="1"/><path fill="rgb(254,254,254)" d="M 1019.18 491.381 C 1026.83 491.056 1034.33 491.627 1041.73 493.657 C 1059.37 498.493 1095.91 519.259 1114.31 528.474 L 1271.2 606.96 L 1610.16 776.432 L 1720.44 831.474 C 1740.84 841.657 1761.71 851.37 1781.68 862.36 C 1788.73 866.245 1794.35 870.672 1798.19 877.968 C 1801.82 884.86 1802.05 893.725 1799.71 901.074 C 1797.42 908.264 1793.01 913.404 1786.82 917.57 C 1777.07 924.128 1765.54 928.94 1755.02 934.148 L 1698.89 962.069 L 1505.04 1059.1 L 1189.86 898.941 C 1181.44 894.657 1117.16 863.465 1113.89 859.855 C 1110.6 856.231 1112.31 845.572 1109.33 839.991 C 1101.86 826.004 1081.33 818.293 1066.85 814.503 C 1035.97 806.419 993.374 808.036 965.478 824.915 C 954.568 831.516 948.025 839.531 944.992 851.827 C 945.325 853.398 945.683 854.964 946.158 856.499 C 950.781 871.451 965.331 879.742 979.076 884.943 C 990.62 889.311 1003.21 891.813 1015.51 892.677 C 1026.08 893.42 1038.15 891.647 1048.08 895.708 C 1059.13 900.224 1069.86 906.576 1080.53 911.979 L 1146.57 945.567 L 1346.52 1047.06 L 1437.28 1093.59 C 1424.49 1098.53 1412.17 1105.44 1399.9 1111.57 L 1335.9 1143.56 L 1131.13 1245.97 L 1080.19 1271.48 C 1065.94 1278.62 1051.52 1287.03 1035.98 1290.92 C 1024.04 1293.91 1011.42 1291.84 1000.18 1287.17 C 983.533 1280.25 967.307 1271.1 951.171 1263.03 L 860.959 1217.88 L 574.893 1074.87 L 358.114 966.49 L 292.759 933.817 C 282.139 928.508 270.205 923.682 260.276 917.303 C 253.552 912.984 248.522 904.282 247.253 896.503 C 245.916 888.155 248.085 879.625 253.245 872.929 C 257.414 867.571 263.008 864.165 268.877 860.969 C 308.185 839.564 349.473 820.724 389.544 800.677 L 638.693 676.082 L 875.273 557.807 C 915.207 537.843 954.993 516.18 995.642 497.783 C 1003.35 494.293 1010.79 492.35 1019.18 491.381 z" data-c-fill="fefefe"/><path fill="rgb(254,254,254)" d="M674.603 1193.51C700.21 1205.27 725.302 1218.63 750.514 1231.24L892.458 1302.26C920.482 1316.28 958.138 1337.77 986.549 1347.33 1008.75 1354.59 1032.58 1355.27 1055.16 1349.29 1073.9 1344.37 1091.17 1334.61 1108.38 1325.97L1164.51 1297.82 1373.75 1193.21 1373.76 1350.02C1373.78 1374.81 1376.1 1404.19 1372.76 1428.49 1368.92 1453.5 1355.24 1475.5 1337.65 1493.23 1262.32 1569.17 1121.03 1590.26 1018.84 1590.18 921.197 1590.1 782.21 1565.7 710.715 1493.35 697.356 1479.83 684.591 1462.69 679.185 1444.24 671.027 1416.39 674.381 1363.9 674.387 1333.49L674.603 1193.51zM1527.91 1094.11C1528.03 1094.25 1528.18 1094.38 1528.26 1094.54 1530.91 1099.83 1565.72 1348.4 1568.76 1374.03 1569.25 1378.19 1570.71 1386.71 1569.23 1390.54 1565.94 1399.07 1511.99 1429.53 1501.57 1435.96 1495.79 1439.88 1489.16 1444.91 1481.9 1445.06 1478.54 1445.13 1475.61 1444.03 1473.19 1441.67 1471.12 1439.63 1469.75 1437.38 1469.45 1434.45 1468.36 1423.84 1469.8 1412.36 1470.4 1401.7L1473.37 1349.55 1481.2 1208.03C1483 1177.26 1485.9 1146.18 1486.01 1115.38L1527.91 1094.11z" data-c-fill="fefefe"/><path fill="rgb(99,165,76)" fill-opacity=".008" d="M 1037.42 0 L 2045 0 L 2045 988.12 C 2041.52 976.07 2041.55 939.565 2040.27 924.432 C 2037.49 893.03 2032.99 861.805 2026.79 830.896 C 1997.34 677.163 1933.02 532.234 1838.78 407.255 C 1810.85 370.637 1780.05 337.297 1749 303.397 C 1741.8 295.533 1733.23 288.971 1725.5 281.642 C 1686.88 244.322 1645.05 210.477 1600.49 180.5 C 1453.08 79.0092 1281.49 18.2237 1103.06 4.28449 C 1082.6 2.61716 1061.87 2.87674 1041.36 2.03289 L 1037.42 0 z" data-c-fill="63a54c" data-o-fill=".008"/><path fill="rgb(99,165,76)" fill-opacity=".369" d="M 987.619 2045.94 C 1003.92 2046.07 1020.18 2046.5 1036.49 2046.35 C 1047.48 2046.25 1058.72 2045.09 1069.67 2046.07 C 1062.91 2048.32 1054.79 2046.02 1047.52 2048 L 997.301 2048 L 987.619 2045.94 z" data-c-fill="63a54c" data-o-fill=".369"/><path fill="rgb(99,165,76)" fill-opacity=".212" d="M 1006.51 0 L 1037.42 0 L 1041.36 2.03289 C 1028.46 1.61955 1015.55 1.61144 1002.66 2.00859 L 1006.51 0 z" data-c-fill="63a54c" data-o-fill=".212"/></svg>